<?xml version="1.0" encoding="UTF-8"?>
<svg version="1.1" xmlns="http://www.w3.org/2000/svg" width="512" height="512">
<path d="M0 0 C1.20785156 -0.03738281 2.41570312 -0.07476562 3.66015625 -0.11328125 C14.2467787 0.44702069 23.71379273 6.04022221 32.6875 11.1875 C33.86846553 11.85476721 35.04987122 12.52125593 36.23168945 13.18701172 C44.90361137 18.08739452 53.49606332 23.12477427 62.08032227 28.17675781 C70.00782828 32.82294401 78.05521282 37.21733587 86.15136719 41.5612793 C93.48233488 45.50158462 100.72539522 49.57429657 107.9387207 53.7253418 C114.70293511 57.61595765 121.5002391 61.44417992 128.3125 65.25 C141.15710446 72.42847573 153.96686075 79.66751024 166.77148438 86.91699219 C168.6674885 87.99026362 170.56364806 89.06326052 172.45996094 90.13598633 C174.35434077 91.2078577 176.24822527 92.280605 178.14160156 93.35424805 C183.28562707 96.26676471 188.44468517 99.14856182 193.625 101.99609375 C194.74084473 102.61234619 195.85668945 103.22859863 197.00634766 103.86352539 C199.14309526 105.04234989 201.28318505 106.21514547 203.42724609 107.38061523 C217.15431487 114.97054505 227.16630082 122.93441181 231.9375 138.3125 C232.81863949 144.08513911 233.08221011 149.68208796 233.07121277 155.51460266 C233.07347833 156.4079748 233.07574388 157.30134694 233.07807809 158.22179097 C233.08437845 161.19776008 233.08359129 164.17368319 233.08276367 167.1496582 C233.08575763 169.29059915 233.0891607 171.43153955 233.09294128 173.57247925 C233.10176114 179.3762809 233.10411854 185.1800678 233.10475707 190.98387551 C233.10546868 194.61293646 233.10760511 198.24199368 233.11025429 201.8710537 C233.11950083 214.54025892 233.12359001 227.20945363 233.12280273 239.87866211 C233.12220203 251.67449042 233.1327542 263.470273 233.1485464 275.26608974 C233.16163579 285.40561936 233.16698605 295.54513405 233.16634732 305.68467206 C233.16609276 311.7351592 233.16892099 317.78560567 233.17952538 323.83608437 C233.18922994 329.52833056 233.18926934 335.22049738 233.18200874 340.91274643 C233.18096586 342.99639566 233.18330813 345.08004989 233.1893692 347.16369057 C233.2768826 379.34438844 233.2768826 379.34438844 221.85546875 391.55810547 C215.08264643 397.75330674 206.16622019 401.9849952 198.1875 406.4375 C196.15879877 407.57672426 194.13015452 408.71605003 192.1015625 409.85546875 C191.07708008 410.42958496 190.05259766 411.00370117 188.99707031 411.59521484 C185.12158209 413.77046095 181.25421319 415.95986831 177.38720703 418.15014648 C168.37775274 423.25290828 159.35076798 428.32346919 150.3125 433.375 C142.66538159 437.64956419 135.03721977 441.95422213 127.4375 446.3125 C118.78328188 451.27551028 110.08781718 456.16187404 101.37939453 461.02905273 C94.34717331 464.96028601 87.32482401 468.90838444 80.3125 472.875 C79.37019531 473.40802734 78.42789062 473.94105469 77.45703125 474.49023438 C74.61696681 476.09726672 71.77717774 477.70478445 68.9375 479.3125 C63.25067414 482.53216054 57.56303328 485.75032406 51.87109375 488.9609375 C47.6698347 491.33080612 43.4762476 493.71376331 39.28515625 496.1015625 C37.06522486 497.359588 34.84517552 498.6174054 32.625 499.875 C31.6055127 500.45886475 30.58602539 501.04272949 29.53564453 501.64428711 C20.39925246 506.80299686 11.49018163 511.37125794 0.8125 511.5625 C-0.03570312 511.58828125 -0.88390625 511.6140625 -1.7578125 511.640625 C-10.99344081 510.72361226 -18.70716668 507.3032892 -26.6875 502.75 C-27.64624023 502.21479736 -28.60498047 501.67959473 -29.59277344 501.12817383 C-36.57144499 497.2138623 -43.48320646 493.18756501 -50.35546875 489.08984375 C-54.08495679 486.87403545 -57.84477153 484.71515098 -61.61328125 482.56640625 C-62.78160382 481.89889394 -63.94989792 481.23133178 -65.11816406 480.5637207 C-67.40232132 479.2586857 -69.68978075 477.96013168 -71.97949219 476.66479492 C-86.08216269 468.60046001 -86.08216269 468.60046001 -89.0625 465.3125 C-89.0625 463.9925 -89.0625 462.6725 -89.0625 461.3125 C-84.15955251 459.09626868 -79.23363237 456.96640962 -74.25 454.9375 C-68.90882533 452.75464445 -63.88559709 450.16673887 -58.8515625 447.3515625 C-55.38999472 446.06195882 -53.63570686 446.47925218 -50.0625 447.3125 C-47.55908203 448.48901367 -47.55908203 448.48901367 -45.0703125 449.98046875 C-43.65866821 450.8166272 -43.65866821 450.8166272 -42.21850586 451.66967773 C-41.21827393 452.27368408 -40.21804199 452.87769043 -39.1875 453.5 C-38.14408447 454.11625244 -37.10066895 454.73250488 -36.02563477 455.36743164 C-30.45286068 458.66174188 -24.91573379 462.01072844 -19.39453125 465.390625 C-18.32251465 466.03749268 -17.25049805 466.68436035 -16.14599609 467.35083008 C-14.08554723 468.59467857 -12.03459009 469.85442032 -9.99462891 471.1315918 C-6.08727315 473.47996564 -3.17787938 475.22708807 1.40625 475.578125 C6.73872753 473.6669273 11.48675517 470.96704681 16.375 468.125 C18.02012573 467.18648193 18.02012573 467.18648193 19.69848633 466.22900391 C28.20994533 461.35887269 36.66654226 456.39286572 45.12255859 451.42724609 C52.57995285 447.0623297 60.12519418 442.88517177 67.72607422 438.77636719 C75.2411547 434.71001567 82.68564326 430.52771318 90.11694336 426.31054688 C97.25027542 422.2628908 104.40220343 418.249742 111.5625 414.25 C120.06437002 409.49793718 128.53631856 404.69745025 136.98486328 399.85131836 C144.82423816 395.36138657 152.70756331 390.9516146 160.59667969 386.54980469 C168.53708668 382.1137541 176.43829926 377.61244636 184.30273438 373.04296875 C185.50639648 372.34880859 185.50639648 372.34880859 186.734375 371.640625 C187.42885742 371.2374707 188.12333984 370.83431641 188.83886719 370.41894531 C191.14806236 369.2014869 193.509368 368.26664808 195.9375 367.3125 C196.14764649 338.47108417 196.3064031 309.6297829 196.40380955 280.78775597 C196.41304811 278.12298915 196.42236017 275.45822282 196.43188477 272.79345703 C196.43424556 272.13111441 196.43660635 271.4687718 196.43903869 270.78635819 C196.47576555 260.72862176 196.5389593 250.67126808 196.61645508 240.61376953 C196.70609795 228.94329218 196.76420929 217.27315907 196.78429645 205.60234702 C196.79604052 199.42125634 196.82368105 193.24115053 196.88907051 187.06037521 C196.95010724 181.24397176 196.969015 175.42895983 196.95546913 169.61226654 C196.95794754 167.47645889 196.97588345 165.34060529 197.01034927 163.20507431 C197.70099819 152.40140432 197.70099819 152.40140432 193.98186493 142.75609303 C191.64949669 141.16441793 189.60152854 140.21184148 186.9375 139.3125 C185.84228027 138.67111084 184.74706055 138.02972168 183.61865234 137.36889648 C182.59723145 136.81274658 181.57581055 136.25659668 180.5234375 135.68359375 C179.6710701 135.21680458 179.6710701 135.21680458 178.80148315 134.74058533 C177.59569609 134.08067032 176.3889448 133.42251435 175.18127441 132.76605225 C171.9520148 131.01030449 168.73042138 129.24057214 165.5078125 127.47265625 C164.86098511 127.11824463 164.21415771 126.76383301 163.54772949 126.39868164 C156.79667101 122.69578564 150.09581976 118.9060593 143.3996582 115.10498047 C137.50026907 111.75761192 131.58589576 108.4387688 125.66088867 105.13696289 C116.33823655 99.94027019 107.07380378 94.66304976 97.875 89.25 C88.92676668 83.98818674 79.87075213 78.97158921 70.72412109 74.06396484 C63.39962926 70.12718506 56.162518 66.05885633 48.95605469 61.91064453 C40.93734815 57.29753697 32.87127026 52.771434 24.78637695 48.27539062 C20.29632839 45.7746933 15.81890379 43.2683409 11.41796875 40.61328125 C10.7727124 40.2275293 10.12745605 39.84177734 9.46264648 39.44433594 C7.8377596 38.46551534 6.22301075 37.46991591 4.609375 36.47265625 C1.36505562 35.06393863 0.29691874 35.36866768 -3.0625 36.3125 C-4.94566732 37.20863028 -6.79433786 38.17901605 -8.61328125 39.19921875 C-9.69198486 39.80080811 -10.77068848 40.40239746 -11.88208008 41.0222168 C-13.04652605 41.68123173 -14.2108291 42.34049926 -15.375 43 C-16.58662057 43.67982154 -17.79845641 44.35925954 -19.01049805 45.03833008 C-27.85148203 50.00512826 -36.61068446 55.10875324 -45.35083008 60.25073242 C-52.74291523 64.58516289 -60.23189488 68.7091304 -67.7746582 72.77416992 C-74.62139653 76.48182317 -81.35286595 80.36283432 -88.0625 84.3125 C-96.57386469 89.32051336 -105.15904772 94.14979924 -113.84594727 98.84594727 C-123.35979647 103.99462863 -132.76576455 109.328257 -142.17138672 114.67138672 C-146.00950109 116.85005627 -149.85170406 119.02144935 -153.69433594 121.19213867 C-155.5950526 122.26594328 -157.49544734 123.34031793 -159.39550781 124.4152832 C-164.41892345 127.25702477 -169.44666467 130.0907583 -174.48046875 132.9140625 C-175.52976563 133.50380859 -176.5790625 134.09355469 -177.66015625 134.70117188 C-179.67318375 135.83238645 -181.68744775 136.96140433 -183.703125 138.08789062 C-185.06244141 138.85262695 -185.06244141 138.85262695 -186.44921875 139.6328125 C-187.24545654 140.07898926 -188.04169434 140.52516602 -188.86206055 140.98486328 C-189.58820557 141.4229834 -190.31435059 141.86110352 -191.0625 142.3125 C-191.7575467 142.65559708 -192.4525934 142.99869415 -193.16870213 143.35218811 C-196.14916507 146.43733095 -195.60984678 149.94477071 -195.56370544 154.00512695 C-195.56923984 154.90395505 -195.57477424 155.80278315 -195.58047634 156.72884846 C-195.59413443 159.75310385 -195.57908565 162.77654131 -195.56420898 165.80078125 C-195.56799028 167.9638199 -195.57348875 170.12685614 -195.58058167 172.28988647 C-195.59457817 178.1741225 -195.58333699 184.05806749 -195.56687045 189.94228745 C-195.5530519 196.09084063 -195.55947638 202.23937636 -195.56300354 208.38793945 C-195.56570819 218.71472888 -195.55220808 229.04140225 -195.52905273 239.36816406 C-195.50244146 251.3191605 -195.50069499 263.26996283 -195.5124411 275.22097874 C-195.52320826 286.70222528 -195.51704015 298.18340139 -195.50288582 309.66464233 C-195.4971168 314.55774596 -195.49721589 319.45079819 -195.50195122 324.34390259 C-195.50671223 330.10259959 -195.49665561 335.86108316 -195.47499657 341.61973953 C-195.46941658 343.73737493 -195.46897444 345.85503079 -195.47394943 347.97266769 C-195.47987395 350.85530891 -195.46745171 353.73729134 -195.45018005 356.61987305 C-195.4561901 357.46509679 -195.46220014 358.31032053 -195.46839231 359.18115711 C-195.56333205 363.37778853 -195.56333205 363.37778853 -193.69211155 366.95533466 C-191.50259616 368.77879645 -189.17197484 370.06240643 -186.671875 371.4296875 C-185.58052246 372.03063232 -184.48916992 372.63157715 -183.36474609 373.25073242 C-182.18070753 373.89640133 -180.99662448 374.54198867 -179.8125 375.1875 C-177.36082079 376.5330526 -174.91093937 377.88186506 -172.4609375 379.23046875 C-171.84147247 379.57078629 -171.22200745 379.91110382 -170.58377075 380.26173401 C-163.56320659 384.12434476 -156.6053712 388.09771591 -149.66308594 392.09912109 C-137.39522948 399.09992338 -125.45034876 404.35618839 -111.06640625 400.51171875 C-104.73370223 397.70682245 -101.065202 393.50626538 -98.0625 387.3125 C-96.8112417 383.07115548 -96.91890537 378.88650279 -96.92446899 374.49961853 C-96.92164771 373.59993601 -96.91882643 372.70025349 -96.91591966 371.77330786 C-96.90757284 368.75242768 -96.90623536 365.73158414 -96.90478516 362.71069336 C-96.90011716 360.54750973 -96.89497362 358.38432709 -96.88938904 356.22114563 C-96.87810748 351.56015553 -96.86967373 346.89917184 -96.86326981 342.23817253 C-96.85259943 334.87332137 -96.83235876 327.5085163 -96.81015015 320.14369202 C-96.74818827 299.20022686 -96.69415605 278.25676468 -96.66113281 257.31323242 C-96.64281775 245.74855496 -96.61392448 234.18395489 -96.5731281 222.61933428 C-96.55201205 216.49638045 -96.53659428 210.37352432 -96.53432083 204.25053215 C-96.53218156 198.49592191 -96.51638624 192.74151536 -96.48993111 186.98696709 C-96.48271007 184.87094748 -96.48065062 182.75490327 -96.48403358 180.63887405 C-96.48790423 177.75847116 -96.47355224 174.87872663 -96.45449829 171.99839783 C-96.46002799 171.15385621 -96.46555768 170.30931458 -96.47125494 169.43918079 C-96.40597141 163.7537 -96.40597141 163.7537 -94.72905672 161.59964949 C-92.07612349 159.55068133 -89.6077964 159.92318713 -86.3125 159.9140625 C-85.33071777 159.90975723 -85.33071777 159.90975723 -84.32910156 159.90536499 C-82.94725681 159.90332632 -81.56538307 159.90884254 -80.18359375 159.92138672 C-78.0696555 159.93744564 -75.95762887 159.92153399 -73.84375 159.90234375 C-72.49999578 159.90432622 -71.15624276 159.90816998 -69.8125 159.9140625 C-68.59046875 159.91744629 -67.3684375 159.92083008 -66.109375 159.92431641 C-62.72749512 160.35518091 -62.08575279 160.70294981 -60.0625 163.3125 C-59.76516689 166.36436667 -59.65377632 169.21262478 -59.67481995 172.26605225 C-59.66674164 173.65672216 -59.66674164 173.65672216 -59.65850013 175.07548642 C-59.64414246 178.1959654 -59.6513438 181.3160248 -59.65844727 184.43652344 C-59.65274735 186.66876061 -59.64578457 188.90099486 -59.63764954 191.13322449 C-59.61964978 197.21034821 -59.62090069 203.28732806 -59.62659192 209.36447048 C-59.62967753 214.44074333 -59.62359749 219.5169883 -59.61755317 224.59325719 C-59.60267855 237.26634935 -59.60633965 249.93935481 -59.61841648 262.6124405 C-59.62832164 273.5920431 -59.61545814 284.57147652 -59.59148229 295.55105302 C-59.5670205 306.83892875 -59.55790071 318.12672802 -59.56413502 329.41463685 C-59.56749764 335.74593709 -59.56513711 342.077098 -59.54788399 348.4083786 C-59.53233954 354.37397462 -59.53645351 360.33925065 -59.55518913 366.30483437 C-59.55885599 368.48516341 -59.55582267 370.66551653 -59.54530334 372.84582329 C-59.46305771 391.31529631 -61.53308252 405.9922303 -72.3125 421.5625 C-84.44444147 433.69444147 -100.30616387 438.37063168 -117.125 438.6875 C-139.59640494 438.62219805 -157.82867821 428.80623333 -176.81640625 417.86328125 C-184.47727711 413.46729869 -192.28214242 409.34148173 -200.10693359 405.24584961 C-214.82194648 397.44102903 -225.92051836 389.77958996 -231.0625 373.3125 C-232.01926994 367.89350369 -232.20645975 362.67226262 -232.19621277 357.19268799 C-232.19847833 356.29608672 -232.20074388 355.39948545 -232.20307809 354.47571445 C-232.20938882 351.48281983 -232.20859061 348.48997083 -232.20776367 345.49707031 C-232.210757 343.34642478 -232.21415994 341.19577979 -232.21794128 339.0451355 C-232.22676815 333.2102839 -232.22911886 327.37544697 -232.22975707 321.54058933 C-232.23046836 317.89260519 -232.2326042 314.24462476 -232.23525429 310.59664154 C-232.24450364 297.86260237 -232.24858972 285.12857367 -232.24780273 272.39453125 C-232.24720218 260.53680783 -232.25775078 248.67912994 -232.2735464 236.82141805 C-232.28663586 226.6309536 -232.29198603 216.44050402 -232.29134732 206.25003123 C-232.29109274 200.16823014 -232.29392239 194.08646951 -232.30452538 188.00467682 C-232.3142299 182.28207531 -232.31426937 176.55955274 -232.30700874 170.83694839 C-232.3059658 168.74201212 -232.30830846 166.64707087 -232.3143692 164.5521431 C-232.36221021 146.86359531 -231.95150438 132.32127338 -219.48046875 118.59179688 C-215.21005055 114.56628958 -210.25324541 111.91622139 -205.125 109.125 C-203.38908246 108.15233529 -201.65316717 107.17966655 -199.91740417 106.20672607 C-198.13784642 105.21329261 -196.35394642 104.22815557 -194.56835938 103.24560547 C-191.23824185 101.4126638 -187.92228543 99.55530062 -184.609375 97.69140625 C-180.46115461 95.35841632 -176.30899439 93.03278082 -172.15234375 90.71484375 C-166.23597843 87.41332163 -160.33424529 84.08641556 -154.4375 80.75 C-153.02561401 79.95118408 -153.02561401 79.95118408 -151.58520508 79.13623047 C-149.69181961 78.06474827 -147.7985089 76.99313395 -145.90527344 75.92138672 C-142.08542846 73.7595198 -138.26432143 71.59988945 -134.44311523 69.44042969 C-132.520667 68.35399145 -130.59830389 67.26740258 -128.67602539 66.18066406 C-123.94792778 63.50772142 -119.2190226 60.83622986 -114.48828125 58.16796875 C-105.26002315 52.9607557 -96.04379934 47.73396644 -86.85058594 42.46508789 C-75.19989906 35.78795767 -63.50885809 29.19542897 -51.75537109 22.70043945 C-43.76590795 18.27974477 -35.82676966 13.77820059 -27.94555664 9.16699219 C-18.68630008 3.80591617 -10.82637862 0.21629989 0 0 Z " fill="#8CC84B" transform="translate(255.0625,0.6875)"/>
<path d="M0 0 C11.2995564 12.1619836 16.5484921 27.54920505 16.96875 43.84375 C16.5078125 46.69921875 16.5078125 46.69921875 14.86157227 48.3527832 C11.86780826 50.06532428 9.8263323 50.08686329 6.38671875 50.09765625 C4.61264648 50.10345703 4.61264648 50.10345703 2.80273438 50.109375 C1.57103516 50.09777344 0.33933594 50.08617187 -0.9296875 50.07421875 C-2.77143555 50.09162109 -2.77143555 50.09162109 -4.65039062 50.109375 C-5.83439453 50.10550781 -7.01839844 50.10164063 -8.23828125 50.09765625 C-9.31779053 50.09427246 -10.3972998 50.09088867 -11.50952148 50.08740234 C-14.89119445 49.64728938 -16.7768195 48.73528885 -19.4921875 46.69921875 C-20.64453125 44.1328125 -20.64453125 44.1328125 -21.4296875 41.13671875 C-24.36883592 31.45275165 -28.4877831 23.78518784 -37.4921875 18.69921875 C-58.38984148 8.50359435 -88.10721502 8.79421478 -110.0546875 15.51171875 C-116.76817971 18.00764394 -121.62685251 20.37783425 -124.9296875 26.94921875 C-127.20193761 32.83552184 -127.24592498 37.89962241 -125.6171875 43.94921875 C-120.3996752 50.70129349 -111.05295324 52.66680068 -103.03125 54.26171875 C-101.55273056 54.56903931 -101.55273056 54.56903931 -100.04434204 54.88256836 C-86.93865594 57.52738785 -73.6914998 59.31785067 -60.45703125 61.17871094 C-1.28650157 69.55157866 -1.28650157 69.55157866 15.38671875 87.75 C25.23660459 100.98221322 26.20701361 117.28522058 24.03515625 133.15234375 C20.67988813 148.50219309 11.94253838 160.88280769 -1.1171875 169.51171875 C-22.00845736 182.59064673 -46.96367674 185.11452734 -71.0546875 185.01171875 C-71.93892395 185.00989594 -72.8231604 185.00807312 -73.73419189 185.00619507 C-86.84099379 184.96068019 -99.65815217 184.60894806 -112.4921875 181.69921875 C-113.66031982 181.44180908 -113.66031982 181.44180908 -114.85205078 181.17919922 C-135.46820062 176.47402449 -153.5887791 166.78586217 -165.4921875 148.69921875 C-170.17943603 139.34932668 -172.85045836 130.25997544 -172.8046875 119.82421875 C-172.82080078 119.06625 -172.83691406 118.30828125 -172.85351562 117.52734375 C-172.85546875 115.33203125 -172.85546875 115.33203125 -172.4921875 111.69921875 C-167.70531482 108.5079703 -162.21047509 109.36595597 -156.61328125 109.38354492 C-154.499477 109.38670784 -152.38706904 109.36322862 -150.2734375 109.33789062 C-148.92968926 109.3356178 -147.58593727 109.33491406 -146.2421875 109.3359375 C-145.02015625 109.33295654 -143.798125 109.32997559 -142.5390625 109.3269043 C-139.4921875 109.69921875 -139.4921875 109.69921875 -137.63012695 111.01831055 C-135.79737345 113.7255639 -135.38099304 116.65393344 -134.6796875 119.82421875 C-132.66992828 128.09141191 -129.36339022 135.35179256 -122.34765625 140.58203125 C-107.94275074 149.25530067 -91.07104962 150.20447905 -74.68847656 150.03540039 C-72.22948759 150.01159581 -69.77157704 150.01490017 -67.3125 150.02148438 C-51.9988027 149.99481332 -34.49714301 149.51344937 -22.11328125 139.34375 C-17.24259933 134.40264859 -15.3813391 128.63792025 -15.1796875 121.82421875 C-15.25821481 116.9626644 -16.09405284 114.35221351 -19.4921875 110.69921875 C-33.23290512 99.18672561 -56.43923525 98.50906538 -73.4296875 96.4765625 C-74.31376282 96.37070328 -75.19783813 96.26484406 -76.10870361 96.15577698 C-80.54046466 95.62888184 -84.97334344 95.11664076 -89.40917969 94.62524414 C-97.92595453 93.6601912 -106.3282771 92.47296039 -114.72265625 90.72265625 C-115.47895325 90.56575317 -116.23525024 90.4088501 -117.01446533 90.24719238 C-132.92371774 86.77092417 -149.70179389 80.16066624 -159.6796875 66.69921875 C-167.71785998 53.68298235 -168.36612206 37.62126337 -165.83203125 22.8515625 C-161.78085843 8.13756252 -152.28688134 -2.91731244 -139.3984375 -10.70703125 C-101.55509495 -31.459832 -32.71623297 -31.1782904 0 0 Z " fill="#8CC84A" transform="translate(385.4921875,178.30078125)"/>
</svg>
